<svg width="462" height="310" viewBox="0 0 462 310" fill="none" xmlns="http://www.w3.org/2000/svg">
<rect width="40.4347" height="309.999" rx="9" fill="#013A3A"/>
<rect x="134.781" y="130.289" width="40.4347" height="179.71" rx="9" fill="#6EB981"/>
<rect x="202.173" y="62.8979" width="40.4347" height="179.71" rx="9" fill="#933535"/>
<rect x="67.3936" y="62.8979" width="40.4347" height="179.71" rx="9" fill="#268775"/>
<path d="M300.999 0C305.97 0 309.999 4.02944 309.999 9V133.441C309.999 139.173 315.285 143.444 320.889 142.241L444.092 115.781C448.952 114.738 453.738 117.831 454.781 122.691L459.492 144.628C460.535 149.487 457.442 154.273 452.582 155.317L294.027 189.369C288.056 190.651 281.826 189.164 277.076 185.326C272.326 181.487 269.564 175.708 269.564 169.601V9C269.564 4.02944 273.594 0 278.564 0H300.999Z" fill="#D68C04"/>
</svg>
