<svg width="120" height="50" viewBox="0 0 120 50" fill="none" xmlns="http://www.w3.org/2000/svg">
<path d="M116.027 25.0738C116.027 24.1764 115.925 23.4021 115.723 22.7508C115.535 22.085 115.267 21.535 114.919 21.1008C114.587 20.6665 114.189 20.3481 113.725 20.1455C113.262 19.9284 112.756 19.8198 112.206 19.8198C111.858 19.8198 111.54 19.8705 111.25 19.9718C110.961 20.0586 110.686 20.1817 110.425 20.3409C110.179 20.4856 109.948 20.6593 109.731 20.8619C109.528 21.0501 109.333 21.2455 109.144 21.4481L108.927 20.0369H106.04V34.7133L109.318 34.214V30.4146C109.622 30.5159 109.948 30.6028 110.295 30.6751C110.657 30.7475 111.077 30.7837 111.554 30.7837C112.133 30.7837 112.69 30.6751 113.226 30.458C113.776 30.2409 114.254 29.9008 114.659 29.4376C115.079 28.9745 115.412 28.3883 115.658 27.6791C115.904 26.9554 116.027 26.087 116.027 25.0738ZM112.748 25.2909C112.748 26.333 112.56 27.0784 112.184 27.5271C111.822 27.9758 111.366 28.2001 110.816 28.2001C110.483 28.2001 110.208 28.1784 109.991 28.135C109.774 28.0771 109.55 27.9903 109.318 27.8745V23.8363C109.593 23.5034 109.875 23.2429 110.165 23.0547C110.454 22.8521 110.78 22.7508 111.142 22.7508C111.605 22.7508 111.989 22.9534 112.292 23.3587C112.596 23.7494 112.748 24.3935 112.748 25.2909Z" fill="currentColor"/>
<path d="M103.78 30.6751V20.0369H100.501V27.0494C100.212 27.3389 99.9151 27.5704 99.6111 27.7441C99.3216 27.9178 99.0177 28.0047 98.6993 28.0047C98.3085 28.0047 98.0262 27.8816 97.8526 27.6356C97.6789 27.3895 97.592 27.0783 97.592 26.702V20.0369H94.3137V27.6139C94.3137 28.656 94.567 29.4665 95.0736 30.0455C95.5802 30.6099 96.3328 30.8922 97.3315 30.8922C97.9973 30.8922 98.5907 30.733 99.1118 30.4145C99.6473 30.0961 100.161 29.6981 100.653 29.2205L100.892 30.6751H103.78Z" fill="currentColor"/>
<path d="M93.3782 30.3494L89.9045 24.8783L93.2479 20.0369H89.7308L86.8867 24.4007V15L83.6084 15.5211V30.6751H86.8867V25.725L89.9696 30.827L93.3782 30.3494Z" fill="currentColor"/>
<path d="M81.8243 29.9151L81.4335 27.2446C80.9703 27.5341 80.5433 27.744 80.1525 27.8743C79.7762 28.0045 79.3927 28.0696 79.0019 28.0696C78.3361 28.0696 77.7716 27.8453 77.3085 27.3966C76.8453 26.9479 76.6137 26.2677 76.6137 25.3558C76.6137 24.4585 76.8236 23.7927 77.2433 23.3584C77.6775 22.9098 78.2275 22.6854 78.8933 22.6854C79.3275 22.6854 79.7328 22.7505 80.1091 22.8808C80.4854 22.9966 80.8835 23.192 81.3032 23.467L81.7374 20.6663C81.3032 20.4203 80.8256 20.2249 80.3045 20.0801C79.7979 19.9354 79.219 19.863 78.5677 19.863C77.844 19.863 77.1637 19.9788 76.5269 20.2104C75.89 20.442 75.3328 20.7894 74.8552 21.2525C74.3775 21.7157 73.994 22.2946 73.7045 22.9894C73.4295 23.6841 73.292 24.5019 73.292 25.4427C73.292 26.2966 73.415 27.0637 73.6611 27.744C73.9071 28.4098 74.2545 28.9743 74.7032 29.4374C75.1663 29.9006 75.7091 30.2552 76.3315 30.5012C76.9683 30.7473 77.6703 30.8703 78.4374 30.8703C79.0743 30.8703 79.6604 30.798 80.196 30.6532C80.746 30.494 81.2887 30.2479 81.8243 29.9151Z" fill="currentColor"/>
<path d="M71.6456 30.6749V23.5538C71.6456 22.1933 71.2838 21.238 70.5601 20.688C69.8364 20.138 68.7364 19.863 67.2601 19.863C66.3916 19.863 65.6028 19.9426 64.8936 20.1019C64.1989 20.2466 63.5475 20.442 62.9396 20.688L63.3304 23.1631C63.8949 22.917 64.4522 22.7216 65.0022 22.5769C65.5666 22.4321 66.1528 22.3598 66.7607 22.3598C67.8318 22.3598 68.3673 22.8084 68.3673 23.7058V23.9012C66.2831 24.0894 64.7489 24.5019 63.7647 25.1387C62.7804 25.7611 62.2883 26.6946 62.2883 27.9394C62.2883 28.9091 62.5561 29.6473 63.0916 30.1539C63.6272 30.646 64.3219 30.892 65.1758 30.892C65.914 30.892 66.5436 30.7545 67.0647 30.4795C67.6002 30.1901 68.0851 29.8137 68.5193 29.3506L68.7364 30.6749H71.6456ZM68.3673 27.744C67.7594 28.2795 67.1515 28.5473 66.5436 28.5473C66.2397 28.5473 65.9936 28.4604 65.8054 28.2868C65.6173 28.0986 65.5232 27.8381 65.5232 27.5052C65.5232 27.2736 65.5666 27.0565 65.6535 26.8539C65.7403 26.6367 65.8923 26.4414 66.1094 26.2677C66.3265 26.094 66.616 25.942 66.9778 25.8117C67.3397 25.6815 67.8028 25.5729 68.3673 25.4861V27.744Z" fill="currentColor"/>
<path d="M60.9869 25.0738C60.9869 24.1764 60.8856 23.4021 60.6829 22.7508C60.4948 22.085 60.227 21.535 59.8796 21.1008C59.5467 20.6665 59.1487 20.3481 58.6856 20.1455C58.2224 19.9284 57.7158 19.8198 57.1658 19.8198C56.8184 19.8198 56.5 19.8705 56.2105 19.9718C55.9211 20.0586 55.6461 20.1817 55.3855 20.3409C55.1395 20.4856 54.9079 20.6593 54.6908 20.8619C54.4882 21.0501 54.2928 21.2455 54.1046 21.4481L53.8875 20.0369H51V34.7133L54.2783 34.214V30.4146C54.5823 30.5159 54.9079 30.6028 55.2553 30.6751C55.6171 30.7475 56.0369 30.7837 56.5145 30.7837C57.0934 30.7837 57.6507 30.6751 58.1862 30.458C58.7362 30.2409 59.2138 29.9008 59.6191 29.4376C60.0389 28.9745 60.3717 28.3883 60.6178 27.6791C60.8639 26.9554 60.9869 26.087 60.9869 25.0738ZM57.7086 25.2909C57.7086 26.333 57.5204 27.0784 57.1441 27.5271C56.7823 27.9758 56.3263 28.2001 55.7763 28.2001C55.4434 28.2001 55.1684 28.1784 54.9513 28.135C54.7342 28.0771 54.5099 27.9903 54.2783 27.8745V23.8363C54.5533 23.5034 54.8355 23.2429 55.125 23.0547C55.4145 22.8521 55.7402 22.7508 56.102 22.7508C56.5652 22.7508 56.9487 22.9534 57.2527 23.3587C57.5566 23.7494 57.7086 24.3935 57.7086 25.2909Z" fill="currentColor"/>
<path fill-rule="evenodd" clip-rule="evenodd" d="M40.3541 16.2009L40.5466 16.295H43.3601C43.4661 16.295 43.5631 16.3531 43.6129 16.4454L43.6189 16.4571L43.8445 16.9255L44.0352 17.3217L44.2273 17.7205L44.4449 18.1724C44.483 18.2515 44.5555 18.3088 44.6416 18.3278C45.342 18.4823 46.1997 18.6743 47.2145 18.9037C48.2853 19.1458 49.0272 18.1065 49.44 15.7858L49.4524 15.7151L49.4611 15.6804C49.749 14.5407 50.262 13.9833 51 14.0084C50.6093 14.3018 50.3811 15.2756 50.3157 16.9296L50.3137 16.98L50.316 17.0292C50.387 18.6493 49.9045 19.7599 48.8687 20.3612C48.0279 20.8493 47.1574 20.9931 46.2573 20.7928C46.1897 20.7777 46.1188 20.7909 46.0613 20.8292C45.9485 20.9042 45.9158 21.0536 45.9848 21.1681L45.9915 21.1787L46.0507 21.2667C46.0871 21.321 46.0973 21.3886 46.0783 21.4511C46.0444 21.5627 45.9287 21.6274 45.8162 21.5999L45.805 21.5968L45.5889 21.5318C45.562 21.5237 45.534 21.5196 45.5058 21.5196C45.3515 21.5196 45.2256 21.6408 45.2191 21.7928L45.2189 21.8052V24.2686C45.2189 24.4221 45.0971 24.5474 44.9443 24.5538L44.9319 24.5541H44.9111C44.8896 24.5541 44.8681 24.5571 44.8474 24.563C44.7278 24.5969 44.6568 24.7182 44.6847 24.8375L44.6876 24.8487L45.5348 27.8089C45.5677 27.9237 45.5252 28.0463 45.4294 28.1167L45.4186 28.1243L43.6133 29.3277C43.5703 29.3563 43.5205 29.3728 43.469 29.3756L43.4536 29.376H41.6934C41.6605 29.376 41.6278 29.3703 41.5968 29.3593L41.5815 29.3534L39.9355 28.6597C39.8131 28.6081 39.6718 28.6471 39.5932 28.7524L39.5856 28.7632L38.8927 29.787C38.8073 29.9133 38.6381 29.9501 38.508 29.873L38.4966 29.8659L37.9965 29.5376C37.9944 29.5361 37.9922 29.5348 37.99 29.5334C37.8592 29.4525 37.6885 29.489 37.6021 29.614L37.5947 29.6252L36.5007 31.3771C36.4787 31.4124 36.4492 31.4425 36.4143 31.4652C36.2855 31.5492 36.114 31.5169 36.0246 31.394L36.017 31.383L35.8786 31.1729C35.8379 31.1112 35.7708 31.0718 35.6969 31.0661C35.5692 31.0564 35.4572 31.1483 35.4413 31.2734L35.4401 31.2852L35.0546 36.2879C35.0434 36.4324 34.9254 36.545 34.7812 36.5513L34.7684 36.5516H31.695C31.5832 36.5516 31.482 36.487 31.435 36.3869L31.4299 36.3751L30.3543 33.7867C30.3231 33.7115 30.261 33.6531 30.1837 33.6262C30.0381 33.5757 29.8792 33.6487 29.8227 33.7899L29.8182 33.8018L28.9213 36.3601C28.8826 36.4707 28.7801 36.546 28.6634 36.5513L28.6504 36.5516H26.2084C26.0541 36.5516 25.9282 36.4304 25.9217 36.2784L25.9214 36.266V32.8817C25.9214 32.7653 25.8505 32.661 25.743 32.6173L25.7309 32.6127L23.4266 31.7943C23.364 31.7721 23.2957 31.7722 23.2334 31.7944L23.2192 31.7999L20.2725 33.0291C20.181 33.0673 20.1161 33.1497 20.1002 33.2465L20.0983 33.2598L19.7465 36.2987C19.7303 36.4386 19.6143 36.5452 19.4742 36.5513L19.4614 36.5516H16.9489C16.7946 36.5516 16.6687 36.4304 16.6622 36.2784L16.6619 36.266V32.6642C16.6619 32.5709 16.6161 32.4835 16.5393 32.4301C16.4131 32.3424 16.2407 32.3696 16.1477 32.4898L16.1397 32.5006L13.3802 36.4296C13.3292 36.5022 13.2474 36.547 13.159 36.5512L13.145 36.5516H10.3395C10.3323 36.5516 10.3251 36.5513 10.318 36.5508C10.1641 36.5393 10.0477 36.409 10.0527 36.257L10.0533 36.2446L10.4877 30.496C10.4912 30.4493 10.4832 30.4025 10.4642 30.3596C10.4021 30.2192 10.2401 30.1533 10.0978 30.2083L10.086 30.2132L8.86811 30.7463C8.78829 30.7812 8.69682 30.7782 8.61954 30.7379C8.48301 30.6669 8.4279 30.5018 8.49246 30.3643L8.49829 30.3526L10.2283 27.0618C10.2607 27.0001 10.2694 26.9286 10.2526 26.861C10.2156 26.712 10.0673 26.6195 9.91759 26.6495L9.90511 26.6523L8.77824 26.9295C8.70572 26.9473 8.62906 26.9363 8.56456 26.8988C8.43154 26.8214 8.38428 26.6539 8.45526 26.5196L8.46163 26.5081L11.8931 20.6664C11.9219 20.6175 11.9645 20.5783 12.0154 20.5537L12.0295 20.5473L17.3992 18.2977L17.5689 18.232C18.1493 18.0062 18.7254 17.7735 19.2971 17.5339C19.2826 17.6771 19.2719 17.894 19.2618 18.1218L19.2594 18.1746C19.2397 18.6243 19.2211 19.0974 19.1784 19.1195C18.9087 19.2594 17.9291 19.6886 16.2398 20.4072C14.9083 22.5412 15.004 24.7546 16.527 27.0476C18.8116 30.4871 31.8089 25.0622 31.8089 23.0403L31.8089 22.9168C31.8079 20.8655 31.7576 17.1431 29.2414 15.8056C28.4249 15.5716 27.1768 15.6444 25.3693 16.2851C25.2556 16.3254 25.2937 15.0624 25.5018 14.5994C25.5071 14.606 24.6072 15.0569 24.5187 15.0911C24.484 15.1045 24.4768 15.3134 24.4764 15.5714L24.4764 15.6188C24.4764 15.6747 24.4768 15.7323 24.4771 15.7904L24.4774 15.8403C24.4798 16.2061 24.4818 16.5721 24.4342 16.5911C23.8456 16.8262 22.9816 17.214 22.1027 17.628L21.9972 17.6778L21.8916 17.7278L21.7861 17.7779L21.6807 17.8282C21.2071 18.0545 20.7413 18.2826 20.3244 18.4925C20.2502 18.5298 20.2565 18.0306 20.2848 17.5157L20.2872 17.4727C20.2885 17.4513 20.2897 17.4298 20.291 17.4083L20.2936 17.3655C20.2993 17.2747 20.3055 17.185 20.3119 17.0992C22.4435 16.1669 24.514 15.1366 26.5233 14.0084C29.407 12.3892 34.0173 13.12 40.3541 16.2009ZM32.1996 14.8297C33.6254 18.5768 32.2995 18.8264 33.5416 20.5383C33.5604 20.5565 33.5795 20.5749 33.5991 20.5934C34.9009 21.8284 36.5212 22.0974 38.46 21.4006C39.3569 21.1059 39.8611 20.8368 39.9726 20.5934C40.1551 19.424 39.8372 18.9242 39.0189 19.0939C37.879 19.4224 36.829 19.6694 35.8687 19.835C34.4284 20.0833 34.3683 18.2251 33.5991 16.0908C33.3099 15.2174 31.8263 13.4251 32.1996 14.8297Z" fill="currentColor"/>
</svg>
