<?xml version="1.0" encoding="UTF-8"?>
<svg version="1.1" xmlns="http://www.w3.org/2000/svg" width="172" height="22" viewBox="0 0 516 66">
<path d="M0 0 C21.78 0 43.56 0 66 0 C66 21.78 66 43.56 66 66 C44.22 66 22.44 66 0 66 C0 44.22 0 22.44 0 0 Z M26 17 C23.0712305 21.39315425 22.59773133 24.77050726 23 30 C23.33 30.66 23.66 31.32 24 32 C29.11356895 30.95662239 33.27289303 28.20413105 37.75 25.625 C39.08224609 24.8825 39.08224609 24.8825 40.44140625 24.125 C41.28058594 23.64289062 42.11976562 23.16078125 42.984375 22.6640625 C43.75491211 22.22529785 44.52544922 21.7865332 45.31933594 21.33447266 C46.15126465 20.67390869 46.15126465 20.67390869 47 20 C47.32539569 16.89944369 47.32539569 16.89944369 45.125 14.8125 C38.60005683 11.02803296 31.54602355 11.85978305 26 17 Z M31.125 38.75 C29.90103516 39.41515625 29.90103516 39.41515625 28.65234375 40.09375 C24.58259151 42.35103509 21.06713034 44.41330114 18 48 C23.17455271 52.80804612 23.17455271 52.80804612 30 54 C35.52939338 52.77838984 38.87514053 50.87478077 42 46 C43.12256131 43.75487738 43.13413762 42.48543351 43.125 40 C43.12757812 39.29875 43.13015625 38.5975 43.1328125 37.875 C43.11377236 35.90846225 43.11377236 35.90846225 42 34 C38.06615879 34 34.49319787 36.87350791 31.125 38.75 Z " fill="currentColor" transform="translate(10,0)"/>
<path d="M0 0 C0.804375 0.495 1.60875 0.99 2.4375 1.5 C2.7675 0.84 3.0975 0.18 3.4375 -0.5 C6.0775 -0.5 8.7175 -0.5 11.4375 -0.5 C11.51229497 4.03487644 11.56640262 8.56938482 11.60229492 13.10473633 C11.61727543 14.64386255 11.6376671 16.18294688 11.66381836 17.72192383 C11.99254834 37.58108201 11.99254834 37.58108201 6.98486328 43.10131836 C1.427936 47.9292887 -2.83848713 47.83656888 -9.9921875 47.78515625 C-14.89585561 47.39350661 -17.53163286 46.29060033 -21.5625 43.5 C-22.765625 41.359375 -22.765625 41.359375 -23.5625 39.5 C-21.9125 38.18 -20.2625 36.86 -18.5625 35.5 C-17.81806641 35.933125 -17.81806641 35.933125 -17.05859375 36.375 C-11.55370584 39.38336379 -7.4159019 40.29044142 -1.125 39 C-0.3515625 38.7525 -0.3515625 38.7525 0.4375 38.5 C0.7675 36.19 1.0975 33.88 1.4375 31.5 C0.89867187 31.82226562 0.35984375 32.14453125 -0.1953125 32.4765625 C-4.74843369 34.44507364 -9.70628296 34.02728362 -14.5625 33.5 C-19.04120656 31.34062362 -21.74448188 28.57047061 -24.5625 24.5 C-26.48045402 18.74613793 -26.45553484 12.69393183 -23.9375 7.125 C-18.97963648 -1.608603 -8.80661016 -3.70804638 0 0 Z M-14.5625 8.5 C-17.02742779 11.88927571 -17.5515512 13.87591845 -17.625 18.0625 C-16.23054391 22.57397557 -14.56785091 24.05228556 -10.5625 26.5 C-6.23304058 27.18359886 -4.37199006 27.0279283 -0.6875 24.625 C2.15691408 21.78058592 2.64104172 20.1112568 2.8125 16.1875 C2.77065788 12.47550617 2.54593381 11.64870923 0.25 8.5 C-5.31363195 4.5436395 -8.64119887 5.10073454 -14.5625 8.5 Z " fill="currentColor" transform="translate(387.5625,18.5)"/>
<path d="M0 0 C0.886875 0.53625 1.77375 1.0725 2.6875 1.625 C5.03261727 3.38162482 5.03261727 3.38162482 8.1875 2.25 C9.80570795 1.53079647 11.41611852 0.79194074 13 0 C17.64304187 -0.56645111 21.12513117 -0.42123314 25.375 1.625 C29.11449074 5.00834877 30.820762 7.79197962 31.23730469 12.92333984 C31.29527066 16.41197628 31.26119646 19.88670074 31.1875 23.375 C31.16719727 25.19451172 31.16719727 25.19451172 31.14648438 27.05078125 C31.11124582 30.03431206 31.06197525 33.01692458 31 36 C28.36 36 25.72 36 23 36 C22.970271 35.08504761 22.970271 35.08504761 22.93994141 34.15161133 C22.84432124 31.37149467 22.73479295 28.59209154 22.625 25.8125 C22.5940625 24.85279297 22.563125 23.89308594 22.53125 22.90429688 C22.47324219 21.50727539 22.47324219 21.50727539 22.4140625 20.08203125 C22.3826416 19.22843018 22.3512207 18.3748291 22.31884766 17.49536133 C21.9282786 14.43869493 21.24329915 11.24329915 19 9 C15.54178598 8.74996036 15.54178598 8.74996036 12 9 C9.36008732 11.63991268 9.69759203 12.97946296 9.5859375 16.6640625 C9.54726562 17.78554688 9.50859375 18.90703125 9.46875 20.0625 C9.42234375 21.8259375 9.42234375 21.8259375 9.375 23.625 C9.33632812 24.80835937 9.29765625 25.99171875 9.2578125 27.2109375 C9.16331155 30.14046691 9.07775442 33.06998597 9 36 C6.03 36 3.06 36 0 36 C-0.01981934 35.25314941 -0.03963867 34.50629883 -0.06005859 33.73681641 C-0.15508211 30.36584395 -0.26485259 26.99551071 -0.375 23.625 C-0.4059375 22.449375 -0.436875 21.27375 -0.46875 20.0625 C-0.50742188 18.94101562 -0.54609375 17.81953125 -0.5859375 16.6640625 C-0.63306885 15.10872803 -0.63306885 15.10872803 -0.68115234 13.52197266 C-0.75954472 10.83190165 -0.75954472 10.83190165 -3 9 C-6.5 8.66666667 -6.5 8.66666667 -10 9 C-13.20694499 12.20694499 -13.12896133 15.59280835 -13.31640625 19.984375 C-13.35830078 20.91894531 -13.40019531 21.85351562 -13.44335938 22.81640625 C-13.50233398 24.26853516 -13.50233398 24.26853516 -13.5625 25.75 C-13.60568359 26.73355469 -13.64886719 27.71710937 -13.69335938 28.73046875 C-13.79922052 31.15351275 -13.90130171 33.5766554 -14 36 C-16.64 36 -19.28 36 -22 36 C-22 24.45 -22 12.9 -22 1 C-18.33333333 1 -14.66666667 1 -11 1 C-7.5690815 -0.71545925 -3.75975087 -0.40610549 0 0 Z " fill="currentColor" transform="translate(177,17)"/>
<path d="M0 0 C4.70317152 3.20670786 8.32385269 7.3000605 9.75 12.875 C10.56426676 19.38913408 9.58647506 24.48985611 5.75 29.875 C1.92752582 33.89708119 -1.39506269 35.75133751 -7 36.125 C-11.35649276 36.09272968 -14.38076659 34.80961671 -18.25 32.875 C-18.58 37.825 -18.91 42.775 -19.25 47.875 C-21.89 47.875 -24.53 47.875 -27.25 47.875 C-27.25 32.035 -27.25 16.195 -27.25 -0.125 C-24.61 -0.125 -21.97 -0.125 -19.25 -0.125 C-18.92 0.535 -18.59 1.195 -18.25 1.875 C-17.445625 1.38 -16.64125 0.885 -15.8125 0.375 C-10.3048683 -1.94400282 -5.637772 -1.95153646 0 0 Z M-16.1875 8.9375 C-18.68467133 12.49407735 -19.25 14.5338867 -19.25 18.875 C-18.15680182 22.97449318 -16.87086321 25.4610912 -13.25 27.875 C-7.43051663 28.45570527 -7.43051663 28.45570527 -2.3125 26 C1.09325286 22.4910425 1.08097275 19.85681561 1.04296875 15.13671875 C0.61344199 11.8207722 -0.85924354 10.12512373 -3.25 7.875 C-7.90943319 5.5452834 -12.11729199 6.07969437 -16.1875 8.9375 Z " fill="currentColor" transform="translate(244.25,18.125)"/>
<path d="M0 0 C1.87353516 0.05200195 1.87353516 0.05200195 4 1 C5.55224609 3.64526367 5.55224609 3.64526367 7.0234375 7.16796875 C7.29209625 7.79923172 7.560755 8.43049469 7.83755493 9.08088684 C8.69764891 11.11074915 9.53657582 13.14860484 10.375 15.1875 C10.930899 16.51035173 11.48817773 17.83262455 12.046875 19.15429688 C13.15739817 21.78578575 14.25735738 24.42134203 15.35058594 27.06005859 C16.45707936 29.72124216 17.59143116 32.36785289 18.75097656 35.00634766 C19.03043121 35.64494217 19.30988586 36.28353668 19.59780884 36.94148254 C20.36813816 38.69617275 21.14409735 40.44838826 21.92041016 42.20043945 C23 45 23 45 23 48 C20.03 48 17.06 48 14 48 C13.01 45.69 12.02 43.38 11 41 C4.4 40.67 -2.2 40.34 -9 40 C-9.66 42.31 -10.32 44.62 -11 47 C-12 48 -12 48 -13.84765625 48.09765625 C-15.8984375 48.06510417 -17.94921875 48.03255208 -20 48 C-19.40928743 42.31727584 -17.30362324 37.63674584 -15 32.48046875 C-14.60425781 31.58129227 -14.20851563 30.68211578 -13.80078125 29.75569153 C-12.96675206 27.86411061 -12.12944528 25.97397183 -11.2890625 24.08520508 C-9.99799162 21.18298534 -8.71691207 18.27651625 -7.4375 15.36914062 C-6.62557581 13.53099555 -5.81309534 11.69309607 -5 9.85546875 C-4.61457031 8.98262741 -4.22914063 8.10978607 -3.83203125 7.210495 C-3.47496094 6.40908585 -3.11789062 5.6076767 -2.75 4.78198242 C-2.43546875 4.07393967 -2.1209375 3.36589691 -1.796875 2.63639832 C-1 1 -1 1 0 0 Z M1 16 C-0.0067004 18.26807204 -1.00551766 20.53907754 -2 22.8125 C-2.28617187 23.45509766 -2.57234375 24.09769531 -2.8671875 24.75976562 C-4.13711041 27.67756469 -5 29.78265714 -5 33 C-0.71 33 3.58 33 8 33 C6.31108451 27.12900806 4.53630629 21.55571853 2 16 C1.67 16 1.34 16 1 16 Z " fill="currentColor" transform="translate(335,5)"/>
<path d="M0 0 C1.86223682 1.23460933 3.31363657 2.46591523 4.76171875 4.16796875 C4.76171875 6.23046875 4.76171875 6.23046875 3.76171875 8.16796875 C1.19921875 9.41796875 1.19921875 9.41796875 -1.23828125 10.16796875 C-1.89828125 9.50796875 -2.55828125 8.84796875 -3.23828125 8.16796875 C-7.30940367 5.45388714 -9.41587295 5.69363351 -14.23828125 6.16796875 C-16.48651228 7.9746528 -16.48651228 7.9746528 -16.3828125 10.515625 C-14.56313738 14.73255129 -10.96021681 15.75234674 -6.92578125 17.60546875 C-1.13662402 20.27553043 2.77898832 22.20250788 5.76171875 28.16796875 C6.63308786 31.96219802 6.12173385 35.33424956 4.57421875 38.91796875 C1.62115636 42.5838393 -1.42836655 45.61826421 -6.23828125 46.16796875 C-12.09886374 46.55867425 -17.09905854 46.23458313 -22.23828125 43.16796875 C-24.4959276 41.00639246 -26.40823807 38.69814209 -28.23828125 36.16796875 C-26.6148832 34.4591287 -24.94509072 32.79350158 -23.23828125 31.16796875 C-21.23828125 31.16796875 -21.23828125 31.16796875 -18.73828125 33.60546875 C-17.50078125 34.87390625 -17.50078125 34.87390625 -16.23828125 36.16796875 C-13.99315863 37.29053006 -12.72371476 37.30210637 -10.23828125 37.29296875 C-9.53703125 37.29554687 -8.83578125 37.298125 -8.11328125 37.30078125 C-6.1467435 37.28174111 -6.1467435 37.28174111 -4.23828125 36.16796875 C-3.14791197 33.19423435 -3.19963959 32.28389374 -4.23828125 29.16796875 C-5.87470872 28.0235684 -5.87470872 28.0235684 -7.9140625 27.1171875 C-8.65978516 26.74787109 -9.40550781 26.37855469 -10.17382812 25.99804688 C-11.74437632 25.24309972 -13.31726614 24.49300258 -14.89257812 23.74804688 C-19.80196975 21.30390436 -22.68437008 19.2422752 -25.23828125 14.16796875 C-26.2947957 9.94191097 -25.51326826 6.75094121 -23.67578125 2.85546875 C-16.91894173 -4.59437995 -8.26159411 -4.37378512 0 0 Z " fill="currentColor" transform="translate(123.23828125,7.83203125)"/>
<path d="M0 0 C3.81252879 2.19924315 5.89071458 4.25736674 7.6875 8.375 C7.6875 12.005 7.6875 15.635 7.6875 19.375 C-4.6875 19.87 -4.6875 19.87 -17.3125 20.375 C-14.98998574 25.25995525 -14.98998574 25.25995525 -12.3125 26.375 C-10.66994209 26.49614921 -9.02197522 26.55040767 -7.375 26.5625 C-6.06208984 26.58376953 -6.06208984 26.58376953 -4.72265625 26.60546875 C-2.05005665 26.54163349 -2.05005665 26.54163349 0.6875 24.375 C2.75 24.4375 2.75 24.4375 4.6875 25.375 C5.9375 27.9375 5.9375 27.9375 6.6875 30.375 C-0.07185496 34.32858498 -5.43160262 36.57316414 -13.40234375 34.94921875 C-18.87752108 33.2362554 -22.1825212 30.14036565 -25.3125 25.375 C-27.00832898 20.28751305 -27.30381523 14.42258626 -25.62890625 9.2734375 C-20.38951589 -0.59661738 -10.29344272 -4.6455425 0 0 Z M-17.3125 10.375 C-17.3125 11.365 -17.3125 12.355 -17.3125 13.375 C-11.7025 13.375 -6.0925 13.375 -0.3125 13.375 C-0.74512391 8.43594023 -0.74512391 8.43594023 -3.5625 6.5625 C-9.93334268 3.8114543 -12.69020194 5.75270194 -17.3125 10.375 Z " fill="currentColor" transform="translate(498.3125,18.625)"/>
<path d="M0 0 C3.81252879 2.19924315 5.89071458 4.25736674 7.6875 8.375 C7.6875 12.005 7.6875 15.635 7.6875 19.375 C-4.6875 19.87 -4.6875 19.87 -17.3125 20.375 C-14.98998574 25.25995525 -14.98998574 25.25995525 -12.3125 26.375 C-10.66994209 26.49614921 -9.02197522 26.55040767 -7.375 26.5625 C-6.06208984 26.58376953 -6.06208984 26.58376953 -4.72265625 26.60546875 C-2.05005665 26.54163349 -2.05005665 26.54163349 0.6875 24.375 C2.75 24.4375 2.75 24.4375 4.6875 25.375 C5.9375 27.9375 5.9375 27.9375 6.6875 30.375 C-0.07185496 34.32858498 -5.43160262 36.57316414 -13.40234375 34.94921875 C-18.87752108 33.2362554 -22.1825212 30.14036565 -25.3125 25.375 C-27.00832898 20.28751305 -27.30381523 14.42258626 -25.62890625 9.2734375 C-20.38951589 -0.59661738 -10.29344272 -4.6455425 0 0 Z M-17.3125 10.375 C-17.3125 11.365 -17.3125 12.355 -17.3125 13.375 C-11.7025 13.375 -6.0925 13.375 -0.3125 13.375 C-0.74512391 8.43594023 -0.74512391 8.43594023 -3.5625 6.5625 C-9.93334268 3.8114543 -12.69020194 5.75270194 -17.3125 10.375 Z " fill="currentColor" transform="translate(458.3125,18.625)"/>
<path d="M0 0 C2.97 0 5.94 0 9 0 C9.23710693 0.63091553 9.47421387 1.26183105 9.71850586 1.91186523 C10.78870612 4.75480595 11.86304543 7.59616458 12.9375 10.4375 C13.31068359 11.43072266 13.68386719 12.42394531 14.06835938 13.44726562 C14.42607422 14.39150391 14.78378906 15.33574219 15.15234375 16.30859375 C15.48226318 17.18314209 15.81218262 18.05769043 16.15209961 18.95874023 C16.82992317 20.95717752 16.82992317 20.95717752 18 22 C20.97 14.74 23.94 7.48 27 0 C29.97 0 32.94 0 36 0 C33.49157521 8.22988808 30.13115358 16.05507853 26.69458008 23.93066406 C26.02142194 25.48096764 25.35542996 27.03440195 24.6965332 28.59082031 C23.73386955 30.86451286 22.75033164 33.12811472 21.76171875 35.390625 C21.47399094 36.08029358 21.18626312 36.76996216 20.88981628 37.48052979 C18.73599229 42.31464566 16.36881712 44.972723 12 48 C8.7890625 48.48828125 8.7890625 48.48828125 5.625 48.3125 C4.56539063 48.26738281 3.50578125 48.22226563 2.4140625 48.17578125 C1.21910156 48.08876953 1.21910156 48.08876953 0 48 C0 45.69 0 43.38 0 41 C1.2375 40.938125 2.475 40.87625 3.75 40.8125 C7.06135069 40.38902354 7.90623747 40.08004118 10.5625 37.8125 C12.385018 34.24670392 11.89629997 32.85464692 11 29 C10.22649905 26.92023902 9.38738103 24.8641032 8.49609375 22.83203125 C8.00302734 21.69185547 7.50996094 20.55167969 7.00195312 19.37695312 C6.48568359 18.20068359 5.96941406 17.02441406 5.4375 15.8125 C4.41046196 13.46698438 3.38808974 11.11941845 2.37109375 8.76953125 C1.91661865 7.73417236 1.46214355 6.69881348 0.99389648 5.63208008 C0 3 0 3 0 0 Z " fill="currentColor" transform="translate(276,18)"/>
<path d="M0 0 C2.64 0 5.28 0 8 0 C8 17.49 8 34.98 8 53 C5.36 53 2.72 53 0 53 C0 35.51 0 18.02 0 0 Z " fill="currentColor" transform="translate(262,0)"/>
<path d="M0 0 C0 2.31 0 4.62 0 7 C-0.62648438 7.19335938 -1.25296875 7.38671875 -1.8984375 7.5859375 C-2.71570313 7.84632812 -3.53296875 8.10671875 -4.375 8.375 C-5.18710937 8.63023438 -5.99921875 8.88546875 -6.8359375 9.1484375 C-9.16459185 9.89854283 -9.16459185 9.89854283 -11 12 C-11.37095708 14.42246595 -11.37095708 14.42246595 -11.4140625 17.2265625 C-11.47207031 18.7734375 -11.47207031 18.7734375 -11.53125 20.3515625 C-11.5621875 21.43179688 -11.593125 22.51203125 -11.625 23.625 C-11.68300781 25.25695313 -11.68300781 25.25695313 -11.7421875 26.921875 C-11.83666247 29.61441165 -11.92222431 32.30693757 -12 35 C-14.97 35 -17.94 35 -21 35 C-21 23.45 -21 11.9 -21 0 C-18.36 0 -15.72 0 -13 0 C-12.67 0.66 -12.34 1.32 -12 2 C-10.948125 1.484375 -9.89625 0.96875 -8.8125 0.4375 C-5.51476233 -0.99688183 -3.4935632 -1.16452107 0 0 Z " fill="currentColor" transform="translate(429,18)"/>
<path d="M0 0 C2.64 0 5.28 0 8 0 C8 11.55 8 23.1 8 35 C5.36 35 2.72 35 0 35 C0 23.45 0 11.9 0 0 Z " fill="currentColor" transform="translate(137,18)"/>
<path d="M0 0 C1.875 1.125 1.875 1.125 3 3 C2.875 6.0625 2.875 6.0625 2 9 C-1 11 -1 11 -3.5625 10.75 C-6 10 -6 10 -8 8 C-7.75 4.4375 -7.75 4.4375 -7 1 C-4.45132831 -0.27433584 -2.82594567 -0.27570202 0 0 Z " fill="currentColor" transform="translate(144,0)"/>
</svg>
