<?xml version="1.0" encoding="UTF-8"?>
<svg version="1.1" xmlns="http://www.w3.org/2000/svg" width="121.3" height="25.4" viewBox="0 0 1213 254">
<path d="M0 0 C3.82500687 0.00770412 7.64999435 0.00052167 11.47500229 -0.0041585 C17.89309247 -0.00958526 24.3110784 -0.00250611 30.72915268 0.01186323 C38.10294547 0.0281838 45.47648922 0.02289309 52.85027599 0.00638402 C59.23132012 -0.00731946 65.61229018 -0.00910764 71.99334431 -0.00129998 C75.7825496 0.0033283 79.57163865 0.00413768 83.36083603 -0.00590944 C131.32828039 -0.11531968 131.32828039 -0.11531968 149.50283432 17.13881636 C153.85936205 21.48867026 157.45560458 26.09946378 160.56606674 31.40297651 C161.16161362 32.40651167 161.16161362 32.40651167 161.76919174 33.43032026 C169.97697761 49.386501 168.01514226 69.45101372 167.96904325 86.83690977 C167.96133913 90.66191664 167.96852159 94.48690412 167.97320175 98.31191206 C167.97862852 104.73000224 167.97154936 111.14798817 167.95718002 117.56606245 C167.94085946 124.93985524 167.94615017 132.31339899 167.96265924 139.68718576 C167.97636272 146.0682299 167.9781509 152.44919996 167.97034323 158.83025408 C167.96571496 162.61945937 167.96490558 166.40854842 167.9749527 170.1977458 C168.08436294 218.16519016 168.08436294 218.16519016 150.8302269 236.33974409 C146.480373 240.69627182 141.86957947 244.29251435 136.56606674 247.40297651 C135.8970433 247.80000776 135.22801987 248.19703901 134.53872299 248.60610151 C118.58254225 256.81388738 98.51802953 254.85205203 81.13213348 254.80595303 C77.30712661 254.7982489 73.48213914 254.80543136 69.6571312 254.81011152 C63.23904101 254.81553829 56.82105508 254.80845914 50.4029808 254.79408979 C43.02918801 254.77776923 35.65564426 254.78305994 28.28185749 254.79956901 C21.90081336 254.81327249 15.5198433 254.81506067 9.13878918 254.807253 C5.34958388 254.80262473 1.56049484 254.80181535 -2.22870255 254.81186247 C-50.19614691 254.92127271 -50.19614691 254.92127271 -68.37070084 237.66713667 C-72.72722857 233.31728277 -76.3234711 228.70648924 -79.43393326 223.40297651 C-79.83096451 222.73395308 -80.22799576 222.06492964 -80.63705826 221.37563276 C-88.84484413 205.41945202 -86.88300877 185.35493931 -86.83690977 167.96904325 C-86.82920565 164.14403638 -86.8363881 160.31904891 -86.84106827 156.49404097 C-86.84649503 150.07595078 -86.83941588 143.65796485 -86.82504654 137.23989058 C-86.80872597 129.86609778 -86.81401668 122.49255403 -86.83052576 115.11876726 C-86.84422923 108.73772313 -86.84601741 102.35675307 -86.83820975 95.97569895 C-86.83358147 92.18649366 -86.83277209 88.39740461 -86.84281921 84.60820723 C-86.95222945 36.64076286 -86.95222945 36.64076286 -69.69809341 18.46620893 C-65.34823951 14.10968121 -60.73744599 10.51343867 -55.43393326 7.40297651 C-54.4303981 6.80742964 -54.4303981 6.80742964 -53.40658951 6.19985151 C-37.45040877 -2.00793436 -17.38589605 -0.046099 0 0 Z M-21.43393326 69.40297651 C-28.50870219 78.78380695 -31.91761275 89.73413299 -32.43393326 101.40297651 C-33.32080826 101.46485151 -34.20768326 101.52672651 -35.12143326 101.59047651 C-39.32722552 102.62208594 -40.7307156 104.05007797 -43.43393326 107.40297651 C-46.77704921 125.85609678 -38.40294718 146.33593684 -28.43393326 161.40297651 C-21.43779025 171.03474737 -13.69828419 179.2293541 -3.43393326 185.40297651 C-2.77393326 185.40297651 -2.11393326 185.40297651 -1.43393326 185.40297651 C-1.46873795 186.12742964 -1.50354263 186.85188276 -1.53940201 187.59828901 C-1.77795833 195.44484244 -1.77795833 195.44484244 1.56606674 202.40297651 C5.43741694 206.3827679 8.66648956 208.24848101 14.20188522 208.54341841 C15.20225311 208.55024641 16.202621 208.55707441 17.23330307 208.56410933 C18.94076454 208.57852064 18.94076454 208.57852064 20.68272018 208.59322309 C21.90879486 208.59747297 23.13486954 208.60172285 24.39809799 208.60610151 C25.66320709 208.61180159 26.92831619 208.61750166 28.23176193 208.62337446 C30.90907002 208.63282118 33.58626612 208.63971975 36.26357651 208.64321089 C39.67976373 208.64868799 43.09555087 208.6727074 46.51161289 208.70118284 C49.78624391 208.72438488 53.06089631 208.72626384 56.33559799 208.73110151 C58.16560097 208.74962172 58.16560097 208.74962172 60.0325737 208.76851606 C67.01349595 208.7502628 72.79379305 208.65085342 78.30825424 203.90297651 C81.77663162 199.31036647 82.69545348 196.4008495 82.62856674 190.71547651 C82.6195433 189.72160933 82.61051987 188.72774214 82.60122299 187.70375776 C82.58962143 186.94449995 82.57801987 186.18524214 82.56606674 185.40297651 C83.29051987 185.1490312 84.01497299 184.89508589 84.76137924 184.63344526 C100.31566404 177.80949023 111.71319304 160.78844298 118.28481674 145.74672651 C122.14635688 135.66904859 124.67140288 125.64570748 124.87856674 114.84047651 C124.91594955 113.56043745 124.95333237 112.28039839 124.99184799 110.96157026 C124.49749588 106.82987511 123.57118942 105.23319787 120.56606674 102.40297651 C116.92424339 101.51241915 116.92424339 101.51241915 113.56606674 101.40297651 C113.62794174 100.28922651 113.68981674 99.17547651 113.75356674 98.02797651 C113.69653511 87.22998739 108.51903652 77.31997888 101.19106674 69.59047651 C94.03774088 62.92345132 85.42656265 58.0892096 75.44497299 58.32094526 C73.67253181 58.40454011 71.90038168 58.49451997 70.12856674 58.59047651 C61.40895832 58.83594989 56.59870996 57.70670745 49.56606674 52.40297651 C24.20003919 39.82078161 -3.79243049 48.17597259 -21.43393326 69.40297651 Z " fill="currentColor" transform="translate(86.43393325805664,-0.40297651290893555)"/>
<path d="M0 0 C49.5 0 99 0 150 0 C150 21.74246898 141.63809192 40.19064027 127.13671875 56.11328125 C126.10434252 57.08966594 125.05735677 58.05072428 124 59 C123.38183411 59.58714783 122.76366821 60.17429565 122.12677002 60.77923584 C114.18721081 67.36427764 106.12692229 67.04268808 96.34765625 66.96484375 C94.63951219 66.97211504 92.93137536 66.98131035 91.22325134 66.99232483 C87.65661253 67.00709065 84.09120279 66.99629106 80.5246582 66.9675293 C75.98024294 66.93326444 71.43926594 66.9665944 66.89513493 67.01973629 C63.37133769 67.05272775 59.84834573 67.04760388 56.32446098 67.0315876 C54.65050325 67.02878997 52.97647704 67.03791557 51.30265999 67.05979729 C40.41056953 67.17735472 33.20885407 65.8122922 25 58 C24.31966202 57.39328964 23.63932404 56.78657928 22.93836975 56.16148376 C9.90090269 44.29686912 2.16242841 26.25660694 0 9 C0 6.03 0 3.06 0 0 Z " fill="currentColor" transform="translate(52,111)"/>
<path d="M0 0 C6.82564898 5.66182865 12.39215808 12.01772925 14 21 C14 23.64 14 26.28 14 29 C6.41 29 -1.18 29 -9 29 C-10.32 26.03 -11.64 23.06 -13 20 C-18.2356077 14.65057475 -23.31096165 12.78520045 -30.76074219 12.61987305 C-39.3707394 12.64138779 -45.85091463 13.3695503 -52.5 19.1875 C-54.58294615 23.09302403 -55.18714635 26.58646536 -55 31 C-53.29177035 36.32565713 -50.70880145 38.19569621 -46 41 C-42.51946258 42.36714093 -42.51946258 42.36714093 -38.75 43.4375 C-38.06180176 43.64648926 -37.37360352 43.85547852 -36.66455078 44.07080078 C-32.94382297 45.18727002 -29.20760242 46.21686072 -25.4453125 47.18359375 C-11.92298955 50.68398158 3.14555794 55.0402173 11.25 67.375 C11.72953125 68.08398438 12.2090625 68.79296875 12.703125 69.5234375 C17.45050811 78.58922332 17.57376854 90.14619047 14.5625 99.8125 C10.8667397 108.5752391 3.65261389 116.03673979 -5 120 C-22.12206189 126.72979438 -42.54615833 127.73853809 -59.73046875 120.48828125 C-70.95299628 115.40272977 -77.39920735 109.44806609 -82 98 C-83.63198147 93.19755453 -84 89.1519318 -84 84 C-76.08 84 -68.16 84 -60 84 C-59.01 86.97 -58.02 89.94 -57 93 C-53.74086487 98.43189189 -48.67111926 101.07766921 -42.63671875 102.59375 C-32.3900187 104.17250082 -23.69766504 103.05985715 -14.625 98.1875 C-10.51022695 94.75852246 -9.18207824 91.72974333 -8.625 86.4375 C-9.14629845 81.6589309 -10.70144735 79.33913242 -14 75.9375 C-20.88874979 71.48851576 -29.17417232 69.60220446 -37.04516602 67.56689453 C-68.28420008 59.44586213 -68.28420008 59.44586213 -77 46 C-77.56267578 45.13375 -77.56267578 45.13375 -78.13671875 44.25 C-81.80719253 36.80940157 -80.98801079 26.01250808 -79.4140625 18.02734375 C-76.16444366 8.62133692 -68.4763239 0.92910156 -59.8359375 -3.75 C-40.95693271 -12.07132442 -17.29945341 -12.075491 0 0 Z " fill="currentColor" transform="translate(420,68)"/>
<path d="M0 0 C11.1157793 9.34600406 15.40870452 21.77175894 16.99609375 35.84375 C18.27171307 52.54574955 15.30063069 68.51167744 4.66015625 81.87109375 C-2.26707338 89.45029794 -11.68351617 93.14309896 -21.7734375 94.05859375 C-31.64005324 94.39008084 -39.37851542 91.5462572 -46.75 84.875 C-48.07 82.895 -49.39 80.915 -50.75 78.875 C-51.08 95.045 -51.41 111.215 -51.75 127.875 C-59.67 127.875 -67.59 127.875 -75.75 127.875 C-75.75 83.655 -75.75 39.435 -75.75 -6.125 C-68.16 -6.125 -60.57 -6.125 -52.75 -6.125 C-52.42 -1.175 -52.09 3.775 -51.75 8.875 C-50.780625 7.51375 -49.81125 6.1525 -48.8125 4.75 C-36.69649435 -10.86290159 -15.50204836 -11.02078396 0 0 Z M-44.0625 17.0625 C-51.08677145 24.41348175 -52.68600327 33.44688366 -52.78515625 43.40625 C-52.34202964 53.34957876 -50.36507577 62.0736169 -43.37109375 69.46875 C-38.58077583 73.62420651 -33.36319378 74.44720007 -27.23828125 74.21484375 C-21.28322741 73.40151615 -17.23672419 70.86134336 -13.4375 66.25 C-6.37519228 55.70464678 -6.56162709 43.0208111 -8.1484375 30.80859375 C-9.7431626 24.1915201 -13.51824105 19.1654044 -18.75 14.875 C-27.64179888 10.29791009 -35.89462289 11.66861889 -44.0625 17.0625 Z " fill="currentColor" transform="translate(912.75,99.125)"/>
<path d="M0 0 C7.59 0 15.18 0 23 0 C23 23.43 23 46.86 23 71 C27.04219327 66.95780673 30.98032412 62.86740793 34.875 58.6875 C35.49922852 58.0181543 36.12345703 57.34880859 36.76660156 56.65917969 C39.80428496 53.39259707 42.82369023 50.11735646 45.75 46.75 C46.28625 46.16734375 46.8225 45.5846875 47.375 44.984375 C49.14250618 42.93508037 49.14250618 42.93508037 50.6875 40.078125 C53.07740793 36.51136846 55.04907204 33.74908066 59 32 C67.89735016 30.60232658 77.05709419 31.32707034 86 32 C84.19973587 35.86131659 81.71905467 38.67975066 78.8125 41.75 C77.81051284 42.82488262 76.80920995 43.90040352 75.80859375 44.9765625 C75.32374512 45.49637695 74.83889648 46.01619141 74.33935547 46.55175781 C72.08503483 48.98934987 69.91722515 51.49975473 67.7421875 54.0078125 C65.68499601 56.36020635 63.59403085 58.68034966 61.5 61 C57.62295327 65.29600719 53.79817338 69.63426766 50 74 C53.88831023 79.91406546 57.89677548 85.71593364 62.0625 91.4375 C63.20184357 93.00909961 64.34116585 94.58071466 65.48046875 96.15234375 C66.05974121 96.9501123 66.63901367 97.74788086 67.23583984 98.56982422 C89 128.55051204 89 128.55051204 89 130 C64.53628953 132.67013039 64.53628953 132.67013039 57.65820312 128.62158203 C53.86142306 124.87736325 51.61091182 120.25651841 49.30859375 115.49902344 C47.00287836 111.09579531 43.97009746 107.22135542 41 103.25 C39.93597188 101.77714441 38.87338282 100.30324773 37.8125 98.828125 C35.62141073 95.81758009 33.3597013 92.88155832 31 90 C27.93455727 91.91459051 25.90622155 93.9175381 24 97 C22.96772739 102.64484203 23.01835232 108.21463002 23.0625 113.9375 C23.04937784 115.49547246 23.03313139 117.05342193 23.01367188 118.61132812 C22.96718008 122.40950556 22.98509647 126.19960096 23 130 C15.41 130 7.82 130 0 130 C0 87.1 0 44.2 0 0 Z " fill="currentColor" transform="translate(743,61)"/>
<path d="M0 0 C1.24608032 0.00845947 1.24608032 0.00845947 2.51733398 0.01708984 C13.70149714 0.2375212 24.39177832 2.96092601 32.4765625 11.19921875 C40.17989126 20.85684028 40.03575424 30.52084283 39.91796875 42.28125 C39.91236595 43.92891044 39.90809909 45.57657592 39.90510559 47.22424316 C39.89371056 51.5381069 39.86429012 55.85166241 39.83099365 60.16540527 C39.80017688 64.57637362 39.78657556 68.98739229 39.77148438 73.3984375 C39.73941461 82.0366148 39.68669108 90.67448341 39.625 99.3125 C32.035 99.3125 24.445 99.3125 16.625 99.3125 C16.295 96.0125 15.965 92.7125 15.625 89.3125 C14.655625 90.385 13.68625 91.4575 12.6875 92.5625 C5.94083188 99.32285304 -2.20890792 101.42578489 -11.5625 101.5625 C-20.78088025 101.46885957 -29.18060623 99.30268193 -36.375 93.3125 C-43.58141242 85.56160309 -44.78215151 78.3738025 -44.62890625 67.953125 C-44.16530597 61.30581018 -42.16459057 56.10209057 -37.375 51.3125 C-27.1457448 42.87012735 -13.14746566 41.763892 -0.45874023 40.43896484 C5.08104882 39.82348525 9.75820348 39.12663404 14.625 36.3125 C16.16946143 33.3568248 15.59321908 30.94232214 14.6875 27.8125 C13.41696447 24.32283906 12.26176688 22.56643305 9 20.75 C2.50125053 18.1552612 -4.04933521 18.53918825 -10.5 21.109375 C-12.8175622 22.59647741 -13.92742061 24.31371147 -15.5 26.5625 C-17.1953125 28.69921875 -17.1953125 28.69921875 -19.375 30.3125 C-24.17660548 30.79493081 -28.63809547 30.12232209 -33.375 29.3125 C-34.83303884 29.12272352 -36.29129308 28.93457108 -37.75 28.75 C-39.049375 28.5334375 -39.049375 28.5334375 -40.375 28.3125 C-41.59587756 24.64986732 -41.09403663 23.9962902 -39.4375 20.625 C-34.69730415 11.69155397 -27.90001982 5.75914111 -18.375 2.3125 C-12.23602195 0.57302253 -6.36581486 -0.0455864 0 0 Z M10 54.625 C6.23542013 55.5122468 2.47881447 56.35831421 -1.328125 57.0390625 C-10.94359564 58.71921067 -10.94359564 58.71921067 -19.375 63.3125 C-22.08056375 67.37084563 -21.89443246 70.55382846 -21.375 75.3125 C-20.00705469 79.01399906 -18.79860704 80.05112544 -15.4375 82.125 C-9.64669395 84.2597463 -2.88591207 84.38656191 3 82.5859375 C8.70190435 79.92936843 12.52094775 76.44446296 15.4375 70.8125 C17.36958017 65.16822084 16.86709124 59.19442047 16.625 53.3125 C14.4173834 53.3125 12.12616273 54.12061833 10 54.625 Z " fill="currentColor" transform="translate(981.375,91.6875)"/>
<path d="M0 0 C1.25176025 0.00737183 1.25176025 0.00737183 2.52880859 0.01489258 C13.29711702 0.2187982 23.53268996 2.73245821 31.6953125 10.1328125 C37.8043502 16.65082343 40.07313011 23.21482502 40.02807617 32.10546875 C40.02873329 33.20449776 40.02873329 33.20449776 40.02940369 34.32572937 C40.02733448 36.71743599 40.00409368 39.10841776 39.98046875 41.5 C39.97486611 43.17008074 39.97059917 44.84016645 39.96760559 46.51025391 C39.95620932 50.88329942 39.92678776 55.25604098 39.89349365 59.62896729 C39.8626796 64.10025929 39.84907614 68.57160092 39.83398438 73.04296875 C39.80191241 81.79963347 39.74918781 90.55599378 39.6875 99.3125 C32.4275 99.3125 25.1675 99.3125 17.6875 99.3125 C17.3575 95.6825 17.0275 92.0525 16.6875 88.3125 C14.9859375 90.16875 14.9859375 90.16875 13.25 92.0625 C6.39331961 98.94353805 -1.37853079 101.43532968 -10.9375 101.5625 C-21.24230246 101.45571448 -29.35649218 99.02636431 -37.3125 92.3125 C-43.9862994 85.23176162 -44.80347164 77.19945938 -44.61328125 67.75 C-43.88346555 59.4092492 -40.27478333 54.68487841 -34.21484375 49.13671875 C-25.5709336 43.70373619 -16.02845799 42.43213225 -6.0625 41.25 C4.72127609 40.18415324 4.72127609 40.18415324 14.6875 36.3125 C16.26518647 32.45593307 15.77547867 30.58569691 14.5 26.625 C12.43973093 22.85968067 10.89167075 21.17842422 6.9375 19.625 C-0.01367254 18.65955937 -5.96147849 19.25191249 -12.3125 22.3125 C-15.47250656 24.9458388 -17.0146256 26.41887681 -18.3125 30.3125 C-25.78343223 30.61133729 -32.94294989 29.47175507 -40.3125 28.3125 C-41.54153387 24.62539838 -40.99623687 23.95102044 -39.3125 20.5625 C-34.22933053 11.03328858 -27.28520625 6.29418618 -17.3125 2.3125 C-11.43489657 0.53470637 -6.12523069 -0.04278608 0 0 Z M10.625 54.625 C6.94601979 55.56787636 3.28680482 56.409161 -0.45703125 57.0390625 C-1.15884521 57.15854248 -1.86065918 57.27802246 -2.58374023 57.40112305 C-3.95495284 57.62851806 -5.32818925 57.84412087 -6.70336914 58.04614258 C-12.27903382 58.9776362 -16.08963126 61.23782251 -20.1875 65.0625 C-21.89117344 68.46984688 -22.06753079 71.64319147 -21.3125 75.3125 C-19.01182826 79.62980992 -15.90856285 81.83184419 -11.3125 83.3125 C-3.03994482 84.42408804 3.89263492 83.29042313 10.6875 78.3125 C16.16467529 72.65864164 16.82036079 67.66146538 16.75 60.0625 C16.74097656 58.79921875 16.73195313 57.5359375 16.72265625 56.234375 C16.71105469 55.27015625 16.69945312 54.3059375 16.6875 53.3125 C14.64827019 53.3125 12.57810209 54.11240928 10.625 54.625 Z " fill="currentColor" transform="translate(590.3125,91.6875)"/>
<path d="M0 0 C8.12843573 5.6827117 12.62256499 12.42287043 15 22 C15.16602934 24.49424274 15.23571542 26.99610212 15.22705078 29.49584961 C15.22734283 30.20888245 15.22763489 30.92191528 15.22793579 31.65655518 C15.22655419 33.9886131 15.21104896 36.32034237 15.1953125 38.65234375 C15.1915782 40.27901536 15.1887332 41.90568922 15.18673706 43.53236389 C15.17913346 47.79519966 15.15951339 52.05789721 15.1373291 56.32067871 C15.11679986 60.6779595 15.10772026 65.03526282 15.09765625 69.39257812 C15.07626413 77.92845564 15.04110898 86.46419465 15 95 C7.41 95 -0.18 95 -8 95 C-8.01458252 93.16896729 -8.02916504 91.33793457 -8.04418945 89.45141602 C-8.09602971 83.37241944 -8.16136542 77.29368237 -8.23571491 71.214921 C-8.28026595 67.53270763 -8.31955455 63.85060101 -8.34643555 60.16821289 C-8.3726224 56.6083109 -8.41313029 53.04882313 -8.46318626 49.48917961 C-8.48776256 47.48373205 -8.49785978 45.47812371 -8.50764465 43.47254944 C-8.64086277 35.12305037 -8.97916489 27.73629606 -14.375 21.0625 C-19.67478404 16.89838397 -24.41849988 16.3077888 -31 17 C-37.08454468 18.29527874 -40.5289582 20.69134783 -44 26 C-46.70050101 32.86203621 -46.35144248 39.9653124 -46.4140625 47.24609375 C-46.43279686 48.62615589 -46.45237192 50.00620685 -46.4727478 51.38624573 C-46.5238359 54.99792862 -46.56358545 58.60964855 -46.60089111 62.22149658 C-46.64107801 65.91533394 -46.69210295 69.60902031 -46.7421875 73.30273438 C-46.83867026 80.53505998 -46.92215914 87.76744533 -47 95 C-54.92 95 -62.84 95 -71 95 C-71 62.66 -71 30.32 -71 -3 C-63.08 -3 -55.16 -3 -47 -3 C-46.67 1.29 -46.34 5.58 -46 10 C-44.845 8.5975 -43.69 7.195 -42.5 5.75 C-32.26133788 -5.79572537 -13.23662256 -8.05604138 0 0 Z " fill="currentColor" transform="translate(519,96)"/>
<path d="M0 0 C6.59159704 5.40780002 11.19630638 11.10678493 12.9140625 19.5703125 C12.9140625 20.2303125 12.9140625 20.8903125 12.9140625 21.5703125 C5.6540625 22.2303125 -1.6059375 22.8903125 -9.0859375 23.5703125 C-11.5609375 19.6103125 -11.5609375 19.6103125 -14.0859375 15.5703125 C-18.79234035 11.80519022 -24.14190907 12.07572107 -29.9453125 12.21484375 C-35.02502741 12.78978661 -38.32273463 14.36630892 -41.5859375 18.4453125 C-42.32561679 21.58894947 -42.11038582 23.49696753 -41.0859375 26.5703125 C-37.05557514 29.72776313 -33.55779424 31.22820686 -28.578125 32.28125 C-27.34320312 32.55710938 -26.10828125 32.83296875 -24.8359375 33.1171875 C-22.27661327 33.66413986 -19.71672537 34.20846209 -17.15625 34.75 C-5.27875632 37.41134713 5.94497584 40.97730077 12.9140625 51.5703125 C16.04704734 57.83628217 15.7268244 65.38856944 13.9765625 72.0703125 C11.04932685 79.7850831 4.98723029 85.84126862 -2.2734375 89.5703125 C-3.86451675 90.26763736 -5.46771085 90.93853908 -7.0859375 91.5703125 C-8.1378125 91.9828125 -9.1896875 92.3953125 -10.2734375 92.8203125 C-24.09865957 96.50703838 -40.28570599 95.89114317 -53.0859375 89.1953125 C-56.58726721 87.05738906 -59.37218345 84.67174571 -62.0859375 81.5703125 C-63.1378125 80.425625 -63.1378125 80.425625 -64.2109375 79.2578125 C-66.52190484 75.94542597 -68.24126964 72.54104086 -69.0859375 68.5703125 C-68.66015625 66.32421875 -68.66015625 66.32421875 -68.0859375 64.5703125 C-64.42320238 64.17357523 -60.75812983 63.86535886 -57.0859375 63.5703125 C-56.09464844 63.45558594 -55.10335938 63.34085937 -54.08203125 63.22265625 C-51.22117558 63.00857862 -48.88300505 62.9159738 -46.0859375 63.5703125 C-44.30609302 65.45073787 -43.32726767 67.27242165 -42.1953125 69.59375 C-40.18344065 73.17828224 -36.82140376 73.95450189 -33.1484375 75.2578125 C-26.42851644 76.27598236 -20.30747277 75.21337731 -14.0859375 72.5703125 C-11.68396211 70.60457031 -11.13785984 69.74091447 -10.2109375 66.6953125 C-10.05892207 62.89492667 -10.8664615 61.60440936 -13.0859375 58.5703125 C-20.16680147 54.2040191 -29.87037005 53.17024326 -37.94067383 51.58398438 C-46.85819189 49.72348928 -57.02192753 46.29379321 -62.4921875 38.58984375 C-66.95346575 30.99327829 -67.38957197 22.97311899 -65.64453125 14.40234375 C-62.76599952 6.49090749 -55.52808041 0.0787513 -48.0859375 -3.4296875 C-33.98592184 -9.50052758 -12.79414806 -8.79268612 0 0 Z " fill="currentColor" transform="translate(1193.0859375,98.4296875)"/>
<path d="M0 0 C0.88075195 0.00491455 1.76150391 0.0098291 2.66894531 0.01489258 C13.81554456 0.21533401 23.10739643 2.57261883 31.3515625 10.35546875 C36.34480894 15.63015272 40.1875 20.76003695 40.1875 28.3125 C32.9275 28.9725 25.6675 29.6325 18.1875 30.3125 C15.7125 26.3525 15.7125 26.3525 13.1875 22.3125 C7.81868878 18.01745102 0.73301011 18.58793483 -5.8125 19.3125 C-8.96079857 20.24748129 -10.21985721 21.1231572 -12.8125 23.3125 C-14.53022914 26.54183078 -14.95271629 28.33098597 -14.4375 31.9375 C-9.74455193 38.7964241 0.39247899 39.64769979 7.9375 41.1875 C20.8217302 44.01166165 32.50142666 46.62966852 40.1875 58.3125 C43.60090165 65.13930329 42.91675842 72.82557381 40.6875 79.9375 C37.1593841 88.67143727 30.91323438 93.52563917 22.50390625 97.3515625 C8.8459151 103.01744079 -6.83056228 102.96696468 -20.8125 98.3125 C-26.42109661 95.89098425 -30.76342863 92.94001014 -34.8125 88.3125 C-35.864375 87.1678125 -35.864375 87.1678125 -36.9375 86 C-39.24846734 82.68761347 -40.96783214 79.28322836 -41.8125 75.3125 C-41.38671875 73.06640625 -41.38671875 73.06640625 -40.8125 71.3125 C-37.14976488 70.91576273 -33.48469233 70.60754636 -29.8125 70.3125 C-28.82121094 70.19777344 -27.82992188 70.08304687 -26.80859375 69.96484375 C-23.94773808 69.75076612 -21.60956755 69.6581613 -18.8125 70.3125 C-17.03306841 72.19248915 -16.05296926 74.01676679 -14.91796875 76.3359375 C-13.22126039 79.36962806 -11.0061671 80.18140957 -7.8125 81.3125 C-0.54674731 83.36181486 6.41228665 82.5031528 13.1875 79.3125 C15.79238422 77.23812995 16.66467977 75.66029921 17.125 72.375 C17.23714844 71.70597656 17.34929687 71.03695312 17.46484375 70.34765625 C17.03778027 67.21385243 15.65505915 66.21888844 13.1875 64.3125 C10.06167268 63.10297446 10.06167268 63.10297446 6.5 62.3125 C5.8500708 62.14935303 5.2001416 61.98620605 4.53051758 61.81811523 C0.95822003 60.93194086 -2.63006326 60.12898659 -6.2265625 59.34765625 C-14.34106187 57.56697195 -21.65152519 55.73587881 -28.8125 51.3125 C-29.740625 50.755625 -30.66875 50.19875 -31.625 49.625 C-37.00744553 43.93498616 -39.13877073 38.05400264 -39.375 30.25 C-39.00670162 21.31391836 -36.46800166 14.97448333 -29.86328125 8.87890625 C-20.92145805 2.04905653 -11.01253851 -0.07258933 0 0 Z " fill="currentColor" transform="translate(1074.8125,91.6875)"/>
<path d="M0 0 C7.8649878 5.79449741 12.33954893 12.74151046 15.0625 22.1875 C15.0625 24.4975 15.0625 26.8075 15.0625 29.1875 C7.8025 29.1875 0.5425 29.1875 -6.9375 29.1875 C-7.659375 27.62 -8.38125 26.0525 -9.125 24.4375 C-11.69362804 19.31471506 -14.17970531 16.71960816 -19.1875 13.9375 C-26.42688745 11.9631216 -32.1375534 12.96757586 -38.703125 16.56640625 C-44.01763825 20.42221569 -46.16477811 26.04306565 -47.9375 32.1875 C-49.54944893 43.77013305 -49.88880547 56.19773082 -42.9375 66.1875 C-38.75153327 71.32274334 -34.23356548 73.25581811 -27.71875 74.1328125 C-21.88294969 74.24756138 -17.65787542 72.4964813 -13.0625 69 C-10.28535162 65.60143328 -10.28535162 65.60143328 -7.9375 58.1875 C-0.3475 58.1875 7.2425 58.1875 15.0625 58.1875 C14.07000468 68.11245321 12.25553552 75.99446448 5.0625 83.1875 C-6.85758828 92.84018018 -18.78378224 95.07509795 -33.9375 94.1875 C-45.21336437 92.47248829 -55.25186346 87.74970609 -62.9375 79.1875 C-72.91143357 65.21599787 -75.58324951 49.06700587 -73.25 32.25 C-70.73168688 18.74904357 -64.42259604 7.85664768 -53.33984375 -0.30859375 C-37.6515478 -10.12972211 -15.59920669 -9.66528919 0 0 Z " fill="currentColor" transform="translate(715.9375,98.8125)"/>
<path d="M0 0 C10.21420734 8.38335885 16.9759757 19.40226584 18.6875 32.5625 C18.790625 33.696875 18.89375 34.83125 19 36 C15.04 36 11.08 36 7 36 C6.7525 34.68 6.505 33.36 6.25 32 C4.21709987 23.08865696 -0.08603988 16.05390369 -7 10 C-16.41970284 4.16002859 -25.52421658 1.47073021 -36.5546875 3.4609375 C-46.28482888 6.03745469 -54.33280616 11.64679242 -60 20 C-61.61208971 23.25440611 -62.85767563 26.55580591 -64 30 C-64.4125 31.19625 -64.825 32.3925 -65.25 33.625 C-65.4975 34.40875 -65.745 35.1925 -66 36 C-69.63 36 -73.26 36 -77 36 C-75.1885955 20.78420223 -69.23330747 10.01758865 -57.65625 -0.03515625 C-40.28439286 -13.31785871 -17.60960387 -11.79122598 0 0 Z " fill="currentColor" transform="translate(140,65)"/>
<path d="M0 0 C21.78 0 43.56 0 66 0 C66 7 66 7 64.86254883 9.40515137 C62.26941017 11.6255837 60.59041406 11.50730178 57.19921875 11.51757812 C56.0078833 11.53018677 54.81654785 11.54279541 53.58911133 11.55578613 C52.30157959 11.54768921 51.01404785 11.53959229 49.6875 11.53125 C48.35375689 11.53394474 47.02001569 11.53782701 45.6862793 11.54284668 C42.89189945 11.54874279 40.09803127 11.54017625 37.30371094 11.52148438 C33.72207414 11.49869344 30.14163615 11.5118161 26.56004333 11.53577423 C23.80618255 11.55022996 21.05260592 11.54562756 18.29873657 11.53526306 C16.33611269 11.53129771 14.37347775 11.54344396 12.41088867 11.55578613 C11.21955322 11.54317749 10.02821777 11.53056885 8.80078125 11.51757812 C7.75059814 11.51439575 6.70041504 11.51121338 5.6184082 11.50793457 C3 11 3 11 1.13745117 9.40515137 C0 7 0 7 0 0 Z " fill="currentColor" transform="translate(94,187)"/>
<path d="M0 0 C5.92414876 4.37963855 9.90353708 9.63094797 12.1875 16.6171875 C12.1875 17.9371875 12.1875 19.2571875 12.1875 20.6171875 C8.41599981 21.0927532 4.93830463 21.3217878 1.1875 20.6171875 C-0.71302851 18.74717206 -1.66433858 16.9797213 -2.83203125 14.59375 C-4.05146737 12.13544451 -5.43973584 10.96175386 -7.8125 9.6171875 C-12.84108199 7.9409935 -17.15280411 8.01076015 -22.0625 9.8046875 C-26.46737205 12.70789862 -28.47270104 15.93758958 -30.8125 20.6171875 C-34.4425 20.6171875 -38.0725 20.6171875 -41.8125 20.6171875 C-41.3311004 12.91479389 -38.13087045 7.48514169 -32.4375 2.3046875 C-22.94814101 -5.12088766 -10.59730378 -6.17014069 0 0 Z " fill="currentColor" transform="translate(125.8125,80.3828125)"/>
<path d="M0 0 C9.21912825 -0.51217379 16.95393981 1.41685985 24.18359375 7.33203125 C32.72864123 15.17877377 35.28810008 22.46722127 36 34 C32.37 34 28.74 34 25 34 C24.5875 32.47375 24.175 30.9475 23.75 29.375 C21.20382393 21.05592702 17.52017574 17.05384473 10 13 C9.32453125 12.73960938 8.6490625 12.47921875 7.953125 12.2109375 C5.14865887 10.4721685 4.2387603 8.28484967 2.75 5.375 C2.22921875 4.37210937 1.7084375 3.36921875 1.171875 2.3359375 C0.59179688 1.17964844 0.59179688 1.17964844 0 0 Z " fill="currentColor" transform="translate(155,67)"/>
<path d="M0 0 C3.31012244 3.31012244 3.50351065 4.53159589 4 9 C3.01 9 2.02 9 1 9 C0.67 6.03 0.34 3.06 0 0 Z " fill="currentColor" transform="translate(167,92)"/>
</svg>
